<svg width="385" height="131" version="1.1" xmlns="http://www.w3.org/2000/svg" desc="Created with imagetracer.js version 1.2.6" ><path fill="rgb(245,230,223)" stroke="rgb(245,230,223)" stroke-width="1" opacity="1" d="M 307.5 13 L 312 13.5 L 307.5 14 L 307.5 13 Z " /><path fill="rgb(245,230,223)" stroke="rgb(245,230,223)" stroke-width="1" opacity="1" d="M 320.5 13 L 324 13.5 L 320.5 14 L 320.5 13 Z " /><path fill="rgb(245,230,223)" stroke="rgb(245,230,223)" stroke-width="1" opacity="1" d="M 289.5 19 L 288.5 21 L 289.5 19 Z " /><path fill="rgb(245,230,223)" stroke="rgb(245,230,223)" stroke-width="1" opacity="1" d="M 343.5 20 L 344.5 22 L 343.5 20 Z " /><path fill="rgb(245,230,223)" stroke="rgb(245,230,223)" stroke-width="1" opacity="1" d="M 346.5 22 L 347.5 24 L 346.5 22 Z " /><path fill="rgb(245,230,223)" stroke="rgb(245,230,223)" stroke-width="1" opacity="1" d="M 282.5 24 L 281.5 26 L 282.5 24 Z " /><path fill="rgb(245,230,223)" stroke="rgb(245,230,223)" stroke-width="1" opacity="1" d="M 350.5 25 L 357.5 33 L 350.5 25 Z " /><path fill="rgb(245,230,223)" stroke="rgb(245,230,223)" stroke-width="1" opacity="1" d="M 33.5 28 L 36 28.5 L 33.5 29 L 33.5 28 Z " /><path fill="rgb(245,230,223)" stroke="rgb(245,230,223)" stroke-width="1" opacity="1" d="M 28.5 30 L 24.5 35 L 28.5 30 Z " /><path fill="rgb(245,230,223)" stroke="rgb(245,230,223)" stroke-width="1" opacity="1" d="M 41.5 31 L 43.5 34 L 41.5 31 Z " /><path fill="rgb(245,230,223)" stroke="rgb(245,230,223)" stroke-width="1" opacity="1" d="M 274.5 32 L 272.5 35 L 274.5 32 Z " /><path fill="rgb(245,230,223)" stroke="rgb(245,230,223)" stroke-width="1" opacity="1" d="M 22.5 33 L 21.5 35 L 22.5 33 Z " /><path fill="rgb(245,230,223)" stroke="rgb(245,230,223)" stroke-width="1" opacity="1" d="M 154.5 33 L 157 33.5 L 154.5 34 L 154.5 33 Z " /><path fill="rgb(245,230,223)" stroke="rgb(245,230,223)" stroke-width="1" opacity="1" d="M 160.5 35 L 161.5 37 L 160.5 35 Z " /><path fill="rgb(245,230,223)" stroke="rgb(245,230,223)" stroke-width="1" opacity="1" d="M 147.5 36 L 143.5 41 L 147.5 36 Z " /><path fill="rgb(245,230,223)" stroke="rgb(245,230,223)" stroke-width="1" opacity="1" d="M 269.5 39 L 268.5 41 L 269.5 39 Z " /><path fill="rgb(245,230,223)" stroke="rgb(245,230,223)" stroke-width="1" opacity="1" d="M 49.5 41 L 50 44.5 L 49 44.5 L 49.5 41 Z " /><path fill="rgb(245,230,223)" stroke="rgb(245,230,223)" stroke-width="1" opacity="1" d="M 284.5 41 L 285 43.5 L 284 43.5 L 284.5 41 Z " /><path fill="rgb(245,230,223)" stroke="rgb(245,230,223)" stroke-width="1" opacity="1" d="M 292.5 41 L 297 41.5 L 292.5 42 L 292.5 41 Z " /><path fill="rgb(245,230,223)" stroke="rgb(245,230,223)" stroke-width="1" opacity="1" d="M 316.5 44 L 312.5 49 L 316.5 44 Z " /><path fill="rgb(245,230,223)" stroke="rgb(245,230,223)" stroke-width="1" opacity="1" d="M 20.5 45 L 21 47.5 L 20 47.5 L 20.5 45 Z " /><path fill="rgb(245,230,223)" stroke="rgb(245,230,223)" stroke-width="1" opacity="1" d="M 342.5 45 L 343.5 47 L 342.5 45 Z " /><path fill="rgb(245,230,223)" stroke="rgb(245,230,223)" stroke-width="1" opacity="1" d="M 283.5 47 L 284 49 L 292 49.5 L 283 50 L 283.5 47 Z " /><path fill="rgb(245,230,223)" stroke="rgb(245,230,223)" stroke-width="1" opacity="1" d="M 17.5 48 L 18 55.5 L 17 55.5 L 17.5 48 Z " /><path fill="rgb(245,230,223)" stroke="rgb(245,230,223)" stroke-width="1" opacity="1" d="M 332.5 49 L 333.5 51 L 332.5 49 Z " /><path fill="rgb(245,230,223)" stroke="rgb(245,230,223)" stroke-width="1" opacity="1" d="M 309.5 50 L 311 52.5 L 309 53.5 L 309.5 50 Z " /><path fill="rgb(245,230,223)" stroke="rgb(245,230,223)" stroke-width="1" opacity="1" d="M 323.5 50 L 321.5 53 L 323.5 50 Z " /><path fill="rgb(245,230,223)" stroke="rgb(245,230,223)" stroke-width="1" opacity="1" d="M 44.5 51 L 40.5 56 L 44.5 51 Z " /><path fill="rgb(245,230,223)" stroke="rgb(245,230,223)" stroke-width="1" opacity="1" d="M 62.5 51 L 63.5 53 L 62 52.5 L 61.5 54 L 61 52.5 L 62.5 51 Z " /><path fill="rgb(245,230,223)" stroke="rgb(245,230,223)" stroke-width="1" opacity="1" d="M 297.5 51 Q 300.8 51.8 300 56.5 L 298 57.5 L 299 53.5 L 297.5 51 Z " /><path fill="rgb(245,230,223)" stroke="rgb(245,230,223)" stroke-width="1" opacity="1" d="M 222.5 52 L 223 54.5 L 222 54.5 L 222.5 52 Z " /><path fill="rgb(245,230,223)" stroke="rgb(245,230,223)" stroke-width="1" opacity="1" d="M 228.5 55 L 228 56.5 L 229 58.5 L 227 57.5 L 228.5 55 Z " /><path fill="rgb(245,230,223)" stroke="rgb(245,230,223)" stroke-width="1" opacity="1" d="M 42.5 56 L 41.5 58 L 42.5 56 Z " /><path fill="rgb(245,230,223)" stroke="rgb(245,230,223)" stroke-width="1" opacity="1" d="M 50.5 56 L 49.5 58 L 50.5 56 Z " /><path fill="rgb(245,230,223)" stroke="rgb(245,230,223)" stroke-width="1" opacity="1" d="M 52.5 56 L 53.5 58 L 52.5 56 Z " /><path fill="rgb(245,230,223)" stroke="rgb(245,230,223)" stroke-width="1" opacity="1" d="M 97.5 56 L 96.5 58 L 97.5 56 Z " /><path fill="rgb(245,230,223)" stroke="rgb(245,230,223)" stroke-width="1" opacity="1" d="M 213.5 56 L 214 58.5 L 213 58.5 L 213.5 56 Z " /><path fill="rgb(245,230,223)" stroke="rgb(245,230,223)" stroke-width="1" opacity="1" d="M 262.5 56 L 263 58.5 L 262 58.5 L 262.5 56 Z " /><path fill="rgb(245,230,223)" stroke="rgb(245,230,223)" stroke-width="1" opacity="1" d="M 79.5 57 L 83 58.5 L 81.5 58 Q 78.5 58.5 79.5 57 Z " /><path fill="rgb(245,230,223)" stroke="rgb(245,230,223)" stroke-width="1" opacity="1" d="M 141.5 57 L 143.5 60 L 141.5 57 Z " /><path fill="rgb(245,230,223)" stroke="rgb(245,230,223)" stroke-width="1" opacity="1" d="M 215.5 57 L 216 61.5 L 215 61.5 L 215.5 57 Z " /><path fill="rgb(245,230,223)" stroke="rgb(245,230,223)" stroke-width="1" opacity="1" d="M 348.5 57 L 349 62.5 L 348 62.5 L 348.5 57 Z " /><path fill="rgb(245,230,223)" stroke="rgb(245,230,223)" stroke-width="1" opacity="1" d="M 369.5 58 L 370 60.5 L 369 60.5 L 369.5 58 Z " /><path fill="rgb(245,230,223)" stroke="rgb(245,230,223)" stroke-width="1" opacity="1" d="M 183.5 59 L 186 60.5 L 184.5 60 L 183.5 59 Z " /><path fill="rgb(245,230,223)" stroke="rgb(245,230,223)" stroke-width="1" opacity="1" d="M 241.5 59 L 243 59.5 L 239.5 62 L 241.5 59 Z " /><path fill="rgb(245,230,223)" stroke="rgb(245,230,223)" stroke-width="1" opacity="1" d="M 244.5 59 L 245 61.5 L 244 61.5 L 244.5 59 Z " /><path fill="rgb(245,230,223)" stroke="rgb(245,230,223)" stroke-width="1" opacity="1" d="M 31.5 60 L 34 60.5 L 31.5 61 L 31.5 60 Z " /><path fill="rgb(245,230,223)" stroke="rgb(245,230,223)" stroke-width="1" opacity="1" d="M 45.5 60 L 41.5 65 L 45.5 60 Z " /><path fill="rgb(245,230,223)" stroke="rgb(245,230,223)" stroke-width="1" opacity="1" d="M 110.5 60 L 109.5 62 L 110.5 60 Z " /><path fill="rgb(245,230,223)" stroke="rgb(245,230,223)" stroke-width="1" opacity="1" d="M 170.5 60 L 172.5 63 L 170.5 60 Z " /><path fill="rgb(245,230,223)" stroke="rgb(245,230,223)" stroke-width="1" opacity="1" d="M 69.5 61 L 67.5 64 L 69.5 61 Z " /><path fill="rgb(245,230,223)" stroke="rgb(245,230,223)" stroke-width="1" opacity="1" d="M 100.5 61 L 101.5 63 L 100.5 61 Z " /><path fill="rgb(245,230,223)" stroke="rgb(245,230,223)" stroke-width="1" opacity="1" d="M 156.5 61 L 156.5 64 Q 153.5 62.5 156.5 61 Z " /><path fill="rgb(245,230,223)" stroke="rgb(245,230,223)" stroke-width="1" opacity="1" d="M 207.5 61 L 204.5 65 L 207.5 61 Z " /><path fill="rgb(245,230,223)" stroke="rgb(245,230,223)" stroke-width="1" opacity="1" d="M 288.5 61 L 291 61.5 L 288.5 62 L 288.5 61 Z " /><path fill="rgb(245,230,223)" stroke="rgb(245,230,223)" stroke-width="1" opacity="1" d="M 71.5 62 L 68.5 66 L 71.5 62 Z " /><path fill="rgb(245,230,223)" stroke="rgb(245,230,223)" stroke-width="1" opacity="1" d="M 86.5 62 L 85.5 64 L 86.5 62 Z " /><path fill="rgb(245,230,223)" stroke="rgb(245,230,223)" stroke-width="1" opacity="1" d="M 222.5 62 L 221.5 64 L 222.5 62 Z " /><path fill="rgb(245,230,223)" stroke="rgb(245,230,223)" stroke-width="1" opacity="1" d="M 261.5 62 L 262 64.5 L 261 64.5 L 261.5 62 Z " /><path fill="rgb(245,230,223)" stroke="rgb(245,230,223)" stroke-width="1" opacity="1" d="M 286.5 62 L 287 65.5 L 286 65.5 L 286.5 62 Z " /><path fill="rgb(245,230,223)" stroke="rgb(245,230,223)" stroke-width="1" opacity="1" d="M 304.5 62 L 303.5 64 L 304.5 62 Z " /><path fill="rgb(245,230,223)" stroke="rgb(245,230,223)" stroke-width="1" opacity="1" d="M 108.5 63 L 107.5 65 L 106 64.5 L 108.5 63 Z " /><path fill="rgb(245,230,223)" stroke="rgb(245,230,223)" stroke-width="1" opacity="1" d="M 161.5 63 Q 164.9 62.1 163 67.5 L 162 67.5 L 161.5 63 Z " /><path fill="rgb(245,230,223)" stroke="rgb(245,230,223)" stroke-width="1" opacity="1" d="M 208.5 63 L 206.5 66 L 208.5 63 Z " /><path fill="rgb(245,230,223)" stroke="rgb(245,230,223)" stroke-width="1" opacity="1" d="M 216.5 63 L 219 63.5 Q 216.9 66.8 216.5 63 Z " /><path fill="rgb(245,230,223)" stroke="rgb(245,230,223)" stroke-width="1" opacity="1" d="M 60.5 64 L 59.5 66 L 60.5 64 Z " /><path fill="rgb(245,230,223)" stroke="rgb(245,230,223)" stroke-width="1" opacity="1" d="M 80.5 64 L 81.5 68 L 83 67.5 Q 81.5 70.5 80 67.5 L 80.5 64 Z " /><path fill="rgb(245,230,223)" stroke="rgb(245,230,223)" stroke-width="1" opacity="1" d="M 95 64 L 97 64.5 L 95 65.5 L 95 64 Z " /><path fill="rgb(245,230,223)" stroke="rgb(245,230,223)" stroke-width="1" opacity="1" d="M 183.5 64 L 178.5 70 L 183.5 64 Z " /><path fill="rgb(245,230,223)" stroke="rgb(245,230,223)" stroke-width="1" opacity="1" d="M 309.5 64 L 310 65.5 L 309.5 67 L 311 67.5 L 309.5 68 L 307.5 65 L 309 65.5 L 309.5 64 Z " /><path fill="rgb(245,230,223)" stroke="rgb(245,230,223)" stroke-width="1" opacity="1" d="M 23.5 65 L 24.5 67 L 23.5 65 Z " /><path fill="rgb(245,230,223)" stroke="rgb(245,230,223)" stroke-width="1" opacity="1" d="M 46.5 65 L 48.5 68 L 46.5 65 Z " /><path fill="rgb(245,230,223)" stroke="rgb(245,230,223)" stroke-width="1" opacity="1" d="M 144.5 65 L 147 65.5 L 144.5 66 L 144.5 65 Z " /><path fill="rgb(245,230,223)" stroke="rgb(245,230,223)" stroke-width="1" opacity="1" d="M 21.5 66 L 23.5 69 L 21.5 66 Z " /><path fill="rgb(245,230,223)" stroke="rgb(245,230,223)" stroke-width="1" opacity="1" d="M 55.5 66 L 58 66.5 L 55.5 67 L 55.5 66 Z " /><path fill="rgb(245,230,223)" stroke="rgb(245,230,223)" stroke-width="1" opacity="1" d="M 61.5 66 L 62.5 68 L 61.5 66 Z " /><path fill="rgb(245,230,223)" stroke="rgb(245,230,223)" stroke-width="1" opacity="1" d="M 156.5 66 L 152.5 71 L 156.5 66 Z " /><path fill="rgb(245,230,223)" stroke="rgb(245,230,223)" stroke-width="1" opacity="1" d="M 170.5 66 L 169.5 68 L 170.5 66 Z " /><path fill="rgb(245,230,223)" stroke="rgb(245,230,223)" stroke-width="1" opacity="1" d="M 194.5 66 L 193.5 68 L 194.5 66 Z " /><path fill="rgb(245,230,223)" stroke="rgb(245,230,223)" stroke-width="1" opacity="1" d="M 89.5 67 L 90.5 69 L 89.5 67 Z " /><path fill="rgb(245,230,223)" stroke="rgb(245,230,223)" stroke-width="1" opacity="1" d="M 98.5 67 L 97.5 69 L 96 68.5 L 98.5 67 Z " /><path fill="rgb(245,230,223)" stroke="rgb(245,230,223)" stroke-width="1" opacity="1" d="M 148.5 67 Q 150.8 66.3 150 68.5 L 148.5 67 Z " /><path fill="rgb(245,230,223)" stroke="rgb(245,230,223)" stroke-width="1" opacity="1" d="M 198.5 67 L 199.5 69 L 198.5 67 Z " /><path fill="rgb(245,230,223)" stroke="rgb(245,230,223)" stroke-width="1" opacity="1" d="M 230.5 67 L 231.5 69 L 230.5 67 Z " /><path fill="rgb(245,230,223)" stroke="rgb(245,230,223)" stroke-width="1" opacity="1" d="M 234.5 67 L 237 67.5 L 234.5 68 L 234.5 67 Z " /><path fill="rgb(245,230,223)" stroke="rgb(245,230,223)" stroke-width="1" opacity="1" d="M 243.5 68 L 247 68.5 L 243.5 69 L 243.5 68 Z " /><path fill="rgb(245,230,223)" stroke="rgb(245,230,223)" stroke-width="1" opacity="1" d="M 287.5 68 L 294 68.5 L 287.5 69 L 287.5 68 Z " /><path fill="rgb(245,230,223)" stroke="rgb(245,230,223)" stroke-width="1" opacity="1" d="M 335.5 68 L 334.5 70 L 335.5 68 Z " /><path fill="rgb(245,230,223)" stroke="rgb(245,230,223)" stroke-width="1" opacity="1" d="M 122.5 69 L 125 70.5 L 123 71.5 L 123.5 70 L 122.5 69 Z " /><path fill="rgb(245,230,223)" stroke="rgb(245,230,223)" stroke-width="1" opacity="1" d="M 163.5 69 L 164.5 71 L 163.5 69 Z " /><path fill="rgb(245,230,223)" stroke="rgb(245,230,223)" stroke-width="1" opacity="1" d="M 27.5 70 L 34 70.5 L 27.5 71 L 27.5 70 Z " /><path fill="rgb(245,230,223)" stroke="rgb(245,230,223)" stroke-width="1" opacity="1" d="M 207.5 70 L 213 70.5 L 207.5 71 L 207.5 70 Z " /><path fill="rgb(245,230,223)" stroke="rgb(245,230,223)" stroke-width="1" opacity="1" d="M 261.5 70 L 262 73.5 L 261 73.5 L 261.5 70 Z " /><path fill="rgb(245,230,223)" stroke="rgb(245,230,223)" stroke-width="1" opacity="1" d="M 299.5 70 Q 303 71 302 76.5 L 297.5 80 L 297.5 79 L 301 76.5 Q 301.6 71 299.5 70 Z " /><path fill="rgb(245,230,223)" stroke="rgb(245,230,223)" stroke-width="1" opacity="1" d="M 148.5 71 L 147.5 73 L 148.5 71 Z " /><path fill="rgb(245,230,223)" stroke="rgb(245,230,223)" stroke-width="1" opacity="1" d="M 166.5 71 L 169 71.5 L 166.5 72 L 166.5 71 Z " /><path fill="rgb(245,230,223)" stroke="rgb(245,230,223)" stroke-width="1" opacity="1" d="M 245.5 71 L 248 71.5 L 245.5 72 L 245.5 71 Z " /><path fill="rgb(245,230,223)" stroke="rgb(245,230,223)" stroke-width="1" opacity="1" d="M 312.5 71 L 313 75.5 L 312 75.5 L 312.5 71 Z " /><path fill="rgb(245,230,223)" stroke="rgb(245,230,223)" stroke-width="1" opacity="1" d="M 326.5 71 L 331 71.5 L 326.5 72 L 326.5 71 Z " /><path fill="rgb(245,230,223)" stroke="rgb(245,230,223)" stroke-width="1" opacity="1" d="M 151.5 72 L 152 74.5 L 151 74.5 L 151.5 72 Z " /><path fill="rgb(245,230,223)" stroke="rgb(245,230,223)" stroke-width="1" opacity="1" d="M 344.5 72 L 340.5 77 L 344.5 72 Z " /><path fill="rgb(245,230,223)" stroke="rgb(245,230,223)" stroke-width="1" opacity="1" d="M 314.5 74 L 315.5 76 L 314.5 74 Z " /><path fill="rgb(245,230,223)" stroke="rgb(245,230,223)" stroke-width="1" opacity="1" d="M 369.5 74 L 370 76.5 L 369 76.5 L 369.5 74 Z " /><path fill="rgb(245,230,223)" stroke="rgb(245,230,223)" stroke-width="1" opacity="1" d="M 148.5 75 L 149 82.5 L 148 82.5 Q 149.3 77.8 147 76.5 L 148.5 75 Z " /><path fill="rgb(245,230,223)" stroke="rgb(245,230,223)" stroke-width="1" opacity="1" d="M 324.5 79 L 328 79.5 L 324.5 80 L 324.5 79 Z " /><path fill="rgb(245,230,223)" stroke="rgb(245,230,223)" stroke-width="1" opacity="1" d="M 329.5 79 L 333 79.5 L 329.5 80 L 329.5 79 Z " /><path fill="rgb(245,230,223)" stroke="rgb(245,230,223)" stroke-width="1" opacity="1" d="M 293.5 80 L 296 80.5 L 293.5 81 L 293.5 80 Z " /><path fill="rgb(245,230,223)" stroke="rgb(245,230,223)" stroke-width="1" opacity="1" d="M 244.5 81 L 248 82.5 L 246.5 82 Q 243.5 82.5 244.5 81 Z " /><path fill="rgb(245,230,223)" stroke="rgb(245,230,223)" stroke-width="1" opacity="1" d="M 280.5 81 L 281 84.5 L 280 84.5 L 280.5 81 Z " /><path fill="rgb(245,230,223)" stroke="rgb(245,230,223)" stroke-width="1" opacity="1" d="M 212.5 82 L 219 82.5 L 212.5 83 L 212.5 82 Z " /><path fill="rgb(245,230,223)" stroke="rgb(245,230,223)" stroke-width="1" opacity="1" d="M 225.5 82 L 233 82.5 L 225.5 83 L 225.5 82 Z " /><path fill="rgb(245,230,223)" stroke="rgb(245,230,223)" stroke-width="1" opacity="1" d="M 309.5 82 L 308.5 84 L 309.5 82 Z " /><path fill="rgb(245,230,223)" stroke="rgb(245,230,223)" stroke-width="1" opacity="1" d="M 327.5 82 Q 330.5 83.5 327.5 85 L 326 84.5 L 328 83.5 L 327.5 82 Z " /><path fill="rgb(245,230,223)" stroke="rgb(245,230,223)" stroke-width="1" opacity="1" d="M 195.5 83 L 202 83.5 L 195.5 84 L 195.5 83 Z " /><path fill="rgb(245,230,223)" stroke="rgb(245,230,223)" stroke-width="1" opacity="1" d="M 144.5 84 L 145 86 L 148 86.5 L 144 87 L 144.5 84 Z " /><path fill="rgb(245,230,223)" stroke="rgb(245,230,223)" stroke-width="1" opacity="1" d="M 179.5 84 L 186 84.5 L 179.5 85 L 179.5 84 Z " /><path fill="rgb(245,230,223)" stroke="rgb(245,230,223)" stroke-width="1" opacity="1" d="M 235.5 84 L 241 84.5 L 235.5 85 L 235.5 84 Z " /><path fill="rgb(245,230,223)" stroke="rgb(245,230,223)" stroke-width="1" opacity="1" d="M 163.5 85 L 170 85.5 L 163.5 86 L 163.5 85 Z " /><path fill="rgb(245,230,223)" stroke="rgb(245,230,223)" stroke-width="1" opacity="1" d="M 227.5 85 L 230 85.5 L 227.5 86 L 227.5 85 Z " /><path fill="rgb(245,230,223)" stroke="rgb(245,230,223)" stroke-width="1" opacity="1" d="M 191 86 L 196 86.5 Q 194.8 89 191 88 L 191 86 Z " /><path fill="rgb(245,230,223)" stroke="rgb(245,230,223)" stroke-width="1" opacity="1" d="M 199.5 86 L 204 86.5 L 199.5 87 L 199.5 86 Z " /><path fill="rgb(245,230,223)" stroke="rgb(245,230,223)" stroke-width="1" opacity="1" d="M 220.5 86 L 223 86.5 L 220.5 87 L 220.5 86 Z " /><path fill="rgb(245,230,223)" stroke="rgb(245,230,223)" stroke-width="1" opacity="1" d="M 312.5 86 L 315 87.5 L 312 88 L 312.5 86 Z " /><path fill="rgb(245,230,223)" stroke="rgb(245,230,223)" stroke-width="1" opacity="1" d="M 338.5 86 L 339.5 88 L 338.5 86 Z " /><path fill="rgb(245,230,223)" stroke="rgb(245,230,223)" stroke-width="1" opacity="1" d="M 343.5 86 L 342.5 88 L 343.5 86 Z " /><path fill="rgb(245,230,223)" stroke="rgb(245,230,223)" stroke-width="1" opacity="1" d="M 115.5 87 L 126 87.5 L 115.5 88 L 115.5 87 Z " /><path fill="rgb(245,230,223)" stroke="rgb(245,230,223)" stroke-width="1" opacity="1" d="M 173.5 87 L 180 87.5 L 173.5 88 L 173.5 87 Z " /><path fill="rgb(245,230,223)" stroke="rgb(245,230,223)" stroke-width="1" opacity="1" d="M 213.5 87 L 216 87.5 L 213.5 88 L 213.5 87 Z " /><path fill="rgb(245,230,223)" stroke="rgb(245,230,223)" stroke-width="1" opacity="1" d="M 335.5 87 L 334.5 89 L 335.5 87 Z " /><path fill="rgb(245,230,223)" stroke="rgb(245,230,223)" stroke-width="1" opacity="1" d="M 96.5 88 L 104 88.5 L 96.5 89 L 96.5 88 Z " /><path fill="rgb(245,230,223)" stroke="rgb(245,230,223)" stroke-width="1" opacity="1" d="M 153.5 88 L 159 88.5 L 153.5 89 L 153.5 88 Z " /><path fill="rgb(245,230,223)" stroke="rgb(245,230,223)" stroke-width="1" opacity="1" d="M 181.5 88 L 186 88.5 L 181.5 89 L 181.5 88 Z " /><path fill="rgb(245,230,223)" stroke="rgb(245,230,223)" stroke-width="1" opacity="1" d="M 204.5 88 L 207 88.5 L 204.5 89 L 204.5 88 Z " /><path fill="rgb(245,230,223)" stroke="rgb(245,230,223)" stroke-width="1" opacity="1" d="M 281.5 88 L 282.5 89 L 295 89.5 L 281 90 L 281.5 88 Z " /><path fill="rgb(245,230,223)" stroke="rgb(245,230,223)" stroke-width="1" opacity="1" d="M 327.5 88 L 328 94.5 L 327 94.5 L 327.5 88 Z " /><path fill="rgb(245,230,223)" stroke="rgb(245,230,223)" stroke-width="1" opacity="1" d="M 78.5 89 L 85 89.5 L 78.5 90 L 78.5 89 Z " /><path fill="rgb(245,230,223)" stroke="rgb(245,230,223)" stroke-width="1" opacity="1" d="M 127.5 89 L 135 89.5 L 127.5 90 L 127.5 89 Z " /><path fill="rgb(245,230,223)" stroke="rgb(245,230,223)" stroke-width="1" opacity="1" d="M 171.5 89 L 176 89.5 L 171.5 90 L 171.5 89 Z " /><path fill="rgb(245,230,223)" stroke="rgb(245,230,223)" stroke-width="1" opacity="1" d="M 195.5 89 L 198 89.5 L 195.5 90 L 195.5 89 Z " /><path fill="rgb(245,230,223)" stroke="rgb(245,230,223)" stroke-width="1" opacity="1" d="M 314.5 89 L 317 90.5 L 316.5 94 L 314.5 89 Z " /><path fill="rgb(245,230,223)" stroke="rgb(245,230,223)" stroke-width="1" opacity="1" d="M 321.5 89 L 322 94.5 L 321 94.5 L 321.5 89 Z " /><path fill="rgb(245,230,223)" stroke="rgb(245,230,223)" stroke-width="1" opacity="1" d="M 64.5 90 L 69 90.5 L 64.5 91 L 64.5 90 Z " /><path fill="rgb(245,230,223)" stroke="rgb(245,230,223)" stroke-width="1" opacity="1" d="M 142.5 90 L 143 92 L 118 91.5 L 141.5 91 L 142.5 90 Z " /><path fill="rgb(245,230,223)" stroke="rgb(245,230,223)" stroke-width="1" opacity="1" d="M 158.5 90 L 164 90.5 L 158.5 91 L 158.5 90 Z " /><path fill="rgb(245,230,223)" stroke="rgb(245,230,223)" stroke-width="1" opacity="1" d="M 186.5 90 L 190 90.5 L 186.5 91 L 186.5 90 Z " /><path fill="rgb(245,230,223)" stroke="rgb(245,230,223)" stroke-width="1" opacity="1" d="M 84.5 91 L 89 91.5 L 84.5 92 L 84.5 91 Z " /><path fill="rgb(245,230,223)" stroke="rgb(245,230,223)" stroke-width="1" opacity="1" d="M 100.5 91 L 105 91.5 L 100.5 92 L 100.5 91 Z " /><path fill="rgb(245,230,223)" stroke="rgb(245,230,223)" stroke-width="1" opacity="1" d="M 175.5 91 L 179 91.5 L 175.5 92 L 175.5 91 Z " /><path fill="rgb(245,230,223)" stroke="rgb(245,230,223)" stroke-width="1" opacity="1" d="M 313.5 91 L 315 93.5 L 313 92.5 L 313.5 91 Z " /><path fill="rgb(245,230,223)" stroke="rgb(245,230,223)" stroke-width="1" opacity="1" d="M 344.5 91 L 345.5 93 L 344.5 91 Z " /><path fill="rgb(245,230,223)" stroke="rgb(245,230,223)" stroke-width="1" opacity="1" d="M 68.5 92 L 74 92.5 L 68.5 93 L 68.5 92 Z " /><path fill="rgb(245,230,223)" stroke="rgb(245,230,223)" stroke-width="1" opacity="1" d="M 162.5 92 L 168 92.5 L 162.5 93 L 162.5 92 Z " /><path fill="rgb(245,230,223)" stroke="rgb(245,230,223)" stroke-width="1" opacity="1" d="M 115.5 93 L 132 93.5 L 115.5 94 L 115.5 93 Z " /><path fill="rgb(245,230,223)" stroke="rgb(245,230,223)" stroke-width="1" opacity="1" d="M 141.5 93 L 152 93.5 L 141.5 94 L 141.5 93 Z " /><path fill="rgb(245,230,223)" stroke="rgb(245,230,223)" stroke-width="1" opacity="1" d="M 311.5 93 L 312.5 95 L 311.5 93 Z " /><path fill="rgb(245,230,223)" stroke="rgb(245,230,223)" stroke-width="1" opacity="1" d="M 339.5 93 L 338.5 95 L 339.5 93 Z " /><path fill="rgb(245,230,223)" stroke="rgb(245,230,223)" stroke-width="1" opacity="1" d="M 155.5 96 L 157.5 100 L 159 99.5 L 157 102.5 L 157.5 106 L 156 105.5 L 156 97.5 L 155.5 96 Z " /><path fill="rgb(245,230,223)" stroke="rgb(245,230,223)" stroke-width="1" opacity="1" d="M 238.5 96 L 241 97.5 L 240 99.5 L 242 99.5 L 241 106 L 239 105.5 L 239 97.5 L 238.5 96 Z " /><path fill="rgb(245,230,223)" stroke="rgb(245,230,223)" stroke-width="1" opacity="1" d="M 166.5 97 L 168 99.5 L 166.5 106 Q 167.1 101.4 164.5 100 L 162 101.5 L 162.5 104 L 163.5 102 L 164 103.5 L 161 105.5 Q 160 100 163.5 99 Q 167 100 166.5 97 Z " /><path fill="rgb(245,230,223)" stroke="rgb(245,230,223)" stroke-width="1" opacity="1" d="M 183.5 97 L 184.5 99 L 183.5 97 Z " /><path fill="rgb(245,230,223)" stroke="rgb(245,230,223)" stroke-width="1" opacity="1" d="M 187.5 97 L 189 99.5 L 187.5 99 L 186 98.5 L 187.5 97 Z " /><path fill="rgb(245,230,223)" stroke="rgb(245,230,223)" stroke-width="1" opacity="1" d="M 222.5 97 L 223 99 L 221 98.5 L 222.5 97 Z " /><path fill="rgb(245,230,223)" stroke="rgb(245,230,223)" stroke-width="1" opacity="1" d="M 170.5 98 L 171 99.5 L 171 101.5 L 170.5 104 L 169 100.5 L 170.5 98 Z " /><path fill="rgb(245,230,223)" stroke="rgb(245,230,223)" stroke-width="1" opacity="1" d="M 360.5 98 L 359.5 100 L 360.5 98 Z " /><path fill="rgb(245,230,223)" stroke="rgb(245,230,223)" stroke-width="1" opacity="1" d="M 141.5 99 L 141 100.5 L 140.5 104 L 140 100.5 L 141.5 99 Z " /><path fill="rgb(245,230,223)" stroke="rgb(245,230,223)" stroke-width="1" opacity="1" d="M 144.5 99 L 144 100.5 L 143.5 104 L 143 100.5 L 144.5 99 Z " /><path fill="rgb(245,230,223)" stroke="rgb(245,230,223)" stroke-width="1" opacity="1" d="M 146 99 Q 149.8 98 151 100.5 L 149.5 100 L 147 100 L 147 105.5 L 146 105.5 L 146 99 Z " /><path fill="rgb(245,230,223)" stroke="rgb(245,230,223)" stroke-width="1" opacity="1" d="M 175.5 99 L 178 99.5 L 175 100 L 174.5 106 L 173 103.5 L 173 101.5 L 175.5 99 Z " /><path fill="rgb(245,230,223)" stroke="rgb(245,230,223)" stroke-width="1" opacity="1" d="M 190.5 99 L 191.5 101 L 190.5 99 Z " /><path fill="rgb(245,230,223)" stroke="rgb(245,230,223)" stroke-width="1" opacity="1" d="M 193.5 99 L 200 99.5 L 195 101.5 L 194.5 106 L 194 101.5 L 194.5 100 L 193.5 99 Z " /><path fill="rgb(245,230,223)" stroke="rgb(245,230,223)" stroke-width="1" opacity="1" d="M 205.5 99 L 209 100.5 L 207 101.5 L 207.5 100 Q 204.5 100.5 205.5 99 Z " /><path fill="rgb(245,230,223)" stroke="rgb(245,230,223)" stroke-width="1" opacity="1" d="M 210.5 99 L 214 99.5 L 210.5 100 L 210.5 99 Z " /><path fill="rgb(245,230,223)" stroke="rgb(245,230,223)" stroke-width="1" opacity="1" d="M 217.5 99 L 218 103.5 L 217 103.5 L 217.5 99 Z " /><path fill="rgb(245,230,223)" stroke="rgb(245,230,223)" stroke-width="1" opacity="1" d="M 244.5 99 L 247 99.5 L 244 100.5 L 244.5 102 Q 241.5 100.5 244.5 99 Z " /><path fill="rgb(245,230,223)" stroke="rgb(245,230,223)" stroke-width="1" opacity="1" d="M 177.5 101 L 178 105.5 L 177 105.5 L 177.5 101 Z " /><path fill="rgb(245,230,223)" stroke="rgb(245,230,223)" stroke-width="1" opacity="1" d="M 203 101 L 205 101.5 L 205 103.5 L 203.5 106 L 203 101 Z " /><path fill="rgb(245,230,223)" stroke="rgb(245,230,223)" stroke-width="1" opacity="1" d="M 211.5 101 L 212 105.5 L 211 105.5 L 211.5 101 Z " /><path fill="rgb(245,230,223)" stroke="rgb(245,230,223)" stroke-width="1" opacity="1" d="M 214.5 101 L 215 105.5 L 214 105.5 L 214.5 101 Z " /><path fill="rgb(245,230,223)" stroke="rgb(245,230,223)" stroke-width="1" opacity="1" d="M 220.5 101 L 223 105.5 L 221 104.5 L 220.5 101 Z " /><path fill="rgb(245,230,223)" stroke="rgb(245,230,223)" stroke-width="1" opacity="1" d="M 229.5 101 L 230 105.5 L 229 105.5 L 228 102.5 L 229.5 101 Z " /><path fill="rgb(245,230,223)" stroke="rgb(245,230,223)" stroke-width="1" opacity="1" d="M 236.5 101 L 237 104.5 L 236.5 107 Q 233.7 105.8 236 104.5 L 236.5 101 Z " /><path fill="rgb(245,230,223)" stroke="rgb(245,230,223)" stroke-width="1" opacity="1" d="M 247.5 101 L 248 102.5 L 246.5 105 L 244 103.5 L 247 103 L 247.5 101 Z " /><path fill="rgb(245,230,223)" stroke="rgb(245,230,223)" stroke-width="1" opacity="1" d="M 149.5 102 L 150 105.5 L 149 105.5 L 149.5 102 Z " /><path fill="rgb(245,230,223)" stroke="rgb(245,230,223)" stroke-width="1" opacity="1" d="M 188.5 102 L 188 103.5 L 187.5 106 Q 184 104 188.5 102 Z " /><path fill="rgb(245,230,223)" stroke="rgb(245,230,223)" stroke-width="1" opacity="1" d="M 200.5 102 L 201 105.5 L 200 105.5 L 200.5 102 Z " /><path fill="rgb(245,230,223)" stroke="rgb(245,230,223)" stroke-width="1" opacity="1" d="M 357.5 102 L 350.5 110 L 357.5 102 Z " /><path fill="rgb(245,230,223)" stroke="rgb(245,230,223)" stroke-width="1" opacity="1" d="M 206.5 103 Q 210.3 101.8 209 105.5 L 206.5 103 Z " /><path fill="rgb(245,230,223)" stroke="rgb(245,230,223)" stroke-width="1" opacity="1" d="M 153.5 104 L 153.5 107 Q 150.5 105.5 153.5 104 Z " /><path fill="rgb(245,230,223)" stroke="rgb(245,230,223)" stroke-width="1" opacity="1" d="M 184.5 104 L 183.5 106 L 184.5 104 Z " /><path fill="rgb(245,230,223)" stroke="rgb(245,230,223)" stroke-width="1" opacity="1" d="M 225.5 104 L 228 105.5 L 226.5 105 L 224.5 106 L 225.5 104 Z " /><path fill="rgb(245,230,223)" stroke="rgb(245,230,223)" stroke-width="1" opacity="1" d="M 282.5 110 L 283.5 112 L 282.5 110 Z " /><path fill="rgb(245,230,223)" stroke="rgb(245,230,223)" stroke-width="1" opacity="1" d="M 347.5 111 L 346.5 113 L 347.5 111 Z " /><path fill="rgb(245,230,223)" stroke="rgb(245,230,223)" stroke-width="1" opacity="1" d="M 288.5 114 L 289.5 116 L 288.5 114 Z " /><path fill="rgb(245,230,223)" stroke="rgb(245,230,223)" stroke-width="1" opacity="1" d="M 307.5 121 L 310 121.5 L 307.5 122 L 307.5 121 Z " /><path fill="rgb(255,255,255)" stroke="rgb(255,255,255)" stroke-width="1" opacity="1" d="M 0 0 L 385 0 L 385 131 L 0 131 L 0 0 Z M 308 13 Q 292 15 283 24 L 268 41 L 263 53 L 261 63 L 261 74 L 263 84 L 268 95 L 277 107 L 292 117 L 308 122 L 324 122 L 333 120 L 351 110 Q 365 98 370 77 L 370 59 L 369 54 Q 365 41 358 33 Q 349 22 336 16 L 324 13 L 308 13 Z M 32 26 L 28 28 L 21 35 L 17 49 L 18 61 L 21 67 L 28 71 Q 41 72 46 64 L 49 68 L 54 67 L 56 67 L 61 65 L 63 68 Q 67 69 69 66 L 72 62 L 73 62 Q 72 68 75 67 L 77 63 L 81 60 L 80 65 Q 79 68 82 69 L 88 62 L 89 68 Q 92 71 99 71 L 104 64 L 104 67 L 108 68 L 112 63 L 114 67 L 121 72 Q 124 73 125 71 L 119 68 L 114 59 L 111 60 L 109 63 L 106 64 L 105 61 Q 106 58 103 59 L 100 66 L 97 68 L 101 62 L 101 58 L 98 56 Q 93 60 93 67 Q 90 66 91 63 L 88 59 L 83 61 L 82 57 Q 77 57 77 60 L 75 55 L 71 60 L 66 65 L 63 65 L 64 61 L 64 53 L 63 51 L 58 64 L 57 58 Q 56 53 50 54 L 46 60 Q 42 67 33 69 L 27 68 L 22 64 L 20 57 L 21 43 L 24 36 L 32 29 L 40 30 Q 46 33 47 42 Q 48 48 45 51 L 36 58 L 29 57 L 28 54 L 29 50 L 28 47 L 26 48 L 26 57 L 32 61 L 42 58 Q 48 54 50 45 Q 50 38 47 34 L 38 26 L 32 26 Z M 155 33 L 148 36 Q 140 41 138 52 Q 137 63 141 67 L 149 68 L 149 71 L 143 80 L 142 87 L 97 88 L 96 89 L 79 89 L 78 90 L 65 90 L 64 91 Q 61 90 62 93 L 89 92 L 90 91 L 109 92 L 116 94 L 168 93 L 169 92 L 190 91 L 199 89 L 230 86 L 231 85 L 247 84 Q 250 83 247 81 L 244 82 L 213 82 L 212 83 L 196 83 L 195 84 L 180 84 L 179 85 L 151 86 L 152 72 Q 155 65 162 64 L 163 70 L 167 72 L 171 71 Q 173 66 176 70 L 179 70 L 184 65 L 184 68 L 191 72 L 198 67 Q 199 71 206 69 L 208 71 Q 214 72 216 69 L 224 69 L 229 65 L 230 68 L 234 70 Q 238 71 240 69 L 246 72 L 249 71 Q 251 72 250 69 L 249 69 L 242 68 L 245 62 Q 246 57 242 59 Q 238 60 239 66 Q 238 68 234 67 L 231 62 L 229 62 L 220 67 L 225 58 Q 227 50 223 48 L 219 49 Q 213 51 213 60 L 212 59 L 203 66 L 200 66 L 199 64 Q 200 60 198 61 L 195 66 L 191 69 L 188 68 Q 185 67 186 61 L 183 59 L 178 67 L 175 67 Q 176 63 173 64 L 171 60 L 163 60 L 154 66 L 153 65 L 156 63 Q 162 58 164 49 Q 165 40 162 37 L 155 33 Z M 229 55 L 227 58 Q 228 60 232 59 L 233 57 Q 232 54 229 55 Z M 156 96 L 155 99 L 152 101 Q 151 106 154 107 Q 155 104 162 106 Q 163 103 165 107 L 168 106 L 168 98 L 166 97 L 167 100 L 166 99 L 162 101 L 161 99 L 158 100 L 156 96 Z M 186 96 L 183 97 L 182 100 L 183 105 L 184 106 L 192 106 Q 193 101 191 99 Q 187 98 188 101 L 190 102 L 186 105 Q 183 104 184 100 Q 185 97 187 99 Q 189 100 188 97 L 186 96 Z M 221 96 Q 216 97 217 104 Q 218 107 223 106 L 223 101 L 221 101 L 221 103 L 221 105 Q 218 104 219 100 Q 220 97 222 99 Q 224 100 223 97 L 221 96 Z M 239 96 Q 239 100 237 99 Q 234 100 235 106 Q 236 108 238 106 L 242 106 L 242 97 L 239 96 Z M 136 97 L 136 106 Q 140 107 138 102 L 140 102 L 141 105 L 141 106 L 145 106 L 145 99 Q 142 100 143 105 L 142 99 L 138 101 Q 137 98 140 99 Q 141 95 136 97 Z M 172 97 L 169 101 Q 168 107 171 106 L 175 106 Q 178 107 176 102 L 177 102 Q 175 107 179 106 Q 180 101 178 99 L 174 101 L 173 100 L 173 98 L 172 97 Z M 146 99 L 146 106 L 148 106 L 149 101 L 149 106 Q 153 107 151 101 Q 150 98 146 99 Z M 193 99 L 193 106 Q 197 107 195 102 L 196 102 Q 194 107 198 106 L 199 101 L 199 106 Q 203 107 201 102 L 202 102 Q 200 107 204 106 Q 205 103 207 107 L 209 106 Q 210 101 208 99 Q 204 98 205 101 Q 202 102 203 99 L 201 100 L 200 99 L 193 99 Z M 210 99 L 210 106 Q 214 107 212 102 L 213 102 Q 211 107 215 106 L 214 101 L 214 99 L 210 99 Z M 226 99 L 224 101 Q 222 108 228 106 L 229 104 L 229 106 L 234 106 L 234 99 Q 230 98 232 105 L 231 105 Q 233 98 229 99 L 229 102 L 228 101 L 226 99 Z M 245 99 Q 242 100 243 105 L 247 106 L 248 103 L 247 101 Q 248 98 245 99 Z " /><path fill="rgb(255,255,255)" stroke="rgb(255,255,255)" stroke-width="1" opacity="1" d="M 153.5 36 Q 158.6 35.4 160 38.5 Q 162.3 41.7 161 48.5 L 154.5 60 L 146.5 61 L 141 56.5 Q 140.6 42.6 149.5 38 L 153.5 36 Z " /><path fill="rgb(255,255,255)" stroke="rgb(255,255,255)" stroke-width="1" opacity="1" d="M 285 41 L 298.5 42 L 308 47.5 L 309.5 54 L 317.5 44 Q 322.3 39.8 332.5 41 Q 341 42.5 345 48.5 Q 349.8 53.7 348 65.5 Q 345.9 73.4 339.5 77 L 335.5 79 Q 330 77.5 328.5 80 L 319.5 78 L 313 72.5 L 312.5 71 Q 313 81.5 306.5 85 L 296.5 89 L 282.5 89 L 281 87.5 L 281 81 L 295.5 81 L 302 76.5 Q 303 71 299.5 70 Q 294.6 67.1 287 68 L 287 62 L 290.5 62 Q 297.1 61.1 300 56.5 Q 300.8 51.8 297.5 51 Q 292.3 48 284 49 L 285 41 Z M 326 49 L 324 50 L 319 57 L 320 67 L 327 72 Q 332 73 335 70 L 338 65 Q 340 57 337 54 Q 335 47 326 49 Z M 309 58 L 308 60 L 303 64 L 310 68 L 311 68 Q 308 64 309 58 Z " /><path fill="rgb(255,255,255)" stroke="rgb(255,255,255)" stroke-width="1" opacity="1" d="M 219.5 51 L 222 51 L 222 57.5 L 217.5 64 Q 214.3 62.3 216 55.5 L 219.5 51 Z " /><path fill="rgb(255,255,255)" stroke="rgb(255,255,255)" stroke-width="1" opacity="1" d="M 51.5 56 L 55 60.5 L 52.5 64 L 49.5 65 Q 47.3 64.3 48 60.5 L 51.5 56 Z " /><path fill="rgb(255,255,255)" stroke="rgb(255,255,255)" stroke-width="1" opacity="1" d="M 141.5 61 L 149 64.5 L 143.5 65 L 141.5 61 Z " /><path fill="rgb(255,255,255)" stroke="rgb(255,255,255)" stroke-width="1" opacity="1" d="M 167 62 L 171 64.5 L 168.5 68 Q 164.3 69.3 166 64.5 L 167 62 Z " /><path fill="rgb(255,255,255)" stroke="rgb(255,255,255)" stroke-width="1" opacity="1" d="M 209.5 63 Q 214.9 61.1 214 64.5 Q 216.8 66.3 212.5 68 Q 207.3 69.3 206 66.5 L 209.5 63 Z " /><path fill="rgb(255,255,255)" stroke="rgb(255,255,255)" stroke-width="1" opacity="1" d="M 147.5 77 L 148 86 Q 143.1 87.8 145 81.5 L 147.5 77 Z " /><path fill="rgb(255,255,255)" stroke="rgb(255,255,255)" stroke-width="1" opacity="1" d="M 324.5 82 L 327.5 83 L 329 82.5 L 323.5 85 L 323 83.5 L 324.5 82 Z " /><path fill="rgb(255,255,255)" stroke="rgb(255,255,255)" stroke-width="1" opacity="1" d="M 196.5 86 L 199 86.5 L 196.5 87 L 196.5 86 Z " /><path fill="rgb(255,255,255)" stroke="rgb(255,255,255)" stroke-width="1" opacity="1" d="M 313.5 86 L 318 87 L 319 95 Q 312.7 96.5 311 92.5 L 312 90 L 315 90.5 L 313 91 L 314.5 94 Q 318.7 95.3 317 90.5 L 314.5 87 L 313.5 86 Z " /><path fill="rgb(255,255,255)" stroke="rgb(255,255,255)" stroke-width="1" opacity="1" d="M 322 86 L 325.5 87 L 328.5 86 L 330 87.5 L 330 95 L 328 94.5 L 328 88 L 324 88 L 324 94.5 L 322 95 L 322 86 Z " /><path fill="rgb(255,255,255)" stroke="rgb(255,255,255)" stroke-width="1" opacity="1" d="M 334.5 86 Q 339.3 85.3 340 88.5 Q 341 94 337.5 95 Q 333 96 332 93.5 L 331 89.5 L 332 87 L 334.5 86 Z M 336 87 L 333 91 L 336 94 L 338 93 Q 339 88 336 87 Z " /><path fill="rgb(255,255,255)" stroke="rgb(255,255,255)" stroke-width="1" opacity="1" d="M 344.5 86 Q 349.3 84.7 348 88 Q 343.9 86.7 345 90 L 348 91.5 Q 349.1 94.8 346.5 94 L 342 95 L 342.5 93 L 344.5 93 L 346 92.5 L 342 89.5 L 344.5 86 Z " /><path fill="rgb(255,255,255)" stroke="rgb(255,255,255)" stroke-width="1" opacity="1" d="M 180.5 87 L 191 87.5 L 171.5 89 L 170.5 90 L 149.5 91 L 150.5 89 L 179.5 88 L 180.5 87 Z " /><path fill="rgb(255,255,255)" stroke="rgb(255,255,255)" stroke-width="1" opacity="1" d="M 135.5 89 Q 143.1 87.5 142 91 L 112 90.5 L 134.5 90 L 135.5 89 Z " /><path fill="rgb(255,255,255)" stroke="rgb(255,255,255)" stroke-width="1" opacity="1" d="M 153 101 Q 156.3 99.7 155 104.5 L 153 103.5 L 153 101 Z " /><path fill="rgb(255,255,255)" stroke="rgb(255,255,255)" stroke-width="1" opacity="1" d="M 157 101 L 160 101.5 L 157.5 103 L 157 101 Z " /><path fill="rgb(255,255,255)" stroke="rgb(255,255,255)" stroke-width="1" opacity="1" d="M 164 101 Q 167.7 99.8 166 105 Q 162.3 106.2 164 101 Z " /><path fill="rgb(255,255,255)" stroke="rgb(255,255,255)" stroke-width="1" opacity="1" d="M 171.5 101 L 172 104.5 L 171 104.5 L 171.5 101 Z " /><path fill="rgb(255,255,255)" stroke="rgb(255,255,255)" stroke-width="1" opacity="1" d="M 226.5 101 L 227 104 Q 224.3 105.1 225 102.5 L 226.5 101 Z " /><path fill="rgb(255,255,255)" stroke="rgb(255,255,255)" stroke-width="1" opacity="1" d="M 237.5 101 L 238 104.5 L 237 104.5 L 237.5 101 Z " /><path fill="rgb(73,182,154)" stroke="rgb(73,182,154)" stroke-width="1" opacity="1" d="M 284.5 23 L 288 24.5 Q 287 27 282.5 26 L 284.5 23 Z " /><path fill="rgb(73,182,154)" stroke="rgb(73,182,154)" stroke-width="1" opacity="1" d="M 328.5 24 Q 342 25 352.5 29 L 360 35.5 L 367 49.5 Q 363.1 53.6 353.5 52 L 352.5 51 L 346 51 L 342.5 45 Q 336.5 39 322.5 41 Q 315.8 43.3 312 48.5 L 310.5 52 L 304.5 44 Q 297.1 39.2 284 41 L 283 50 L 294.5 50 L 295 52 Q 289.6 52.7 287 57.5 L 282.5 65 L 262 62 Q 264.5 39.8 278.5 28 Q 283.3 29.3 284.5 27 L 320.5 27 L 328.5 24 Z " /><path fill="rgb(73,182,154)" stroke="rgb(73,182,154)" stroke-width="1" opacity="1" d="M 326.5 49 L 332 49.5 L 326.5 50 L 326.5 49 Z " /><path fill="rgb(73,182,154)" stroke="rgb(73,182,154)" stroke-width="1" opacity="1" d="M 337.5 58 L 338 62.5 L 333.5 70 L 325.5 71 L 321 67.5 L 320 65.5 Q 326.7 59.7 337.5 58 Z " /><path fill="rgb(73,182,154)" stroke="rgb(73,182,154)" stroke-width="1" opacity="1" d="M 349.5 60 L 365 72.5 L 369 77.5 L 369 79.5 Q 363.7 100.2 348.5 111 L 341.5 115 L 327 98.5 Q 323.2 96.2 324 89.5 L 327 88 L 327 95 L 330 95 L 330 87.5 L 328.5 86 L 322 86 L 322 88.5 L 321 88.5 L 316 76.5 L 317.5 77 Q 322.3 81.2 332.5 80 Q 341 78.5 345 72.5 L 349.5 60 Z M 325 82 L 323 85 L 325 84 L 328 85 L 329 82 L 327 83 L 325 82 Z M 334 86 Q 330 87 331 93 L 336 96 L 339 95 L 341 92 L 340 88 Q 339 85 334 86 Z M 344 86 L 342 90 L 345 93 Q 341 92 342 95 Q 348 96 349 93 L 348 90 L 345 89 L 348 88 Q 349 84 344 86 Z " /><path fill="rgb(73,182,154)" stroke="rgb(73,182,154)" stroke-width="1" opacity="1" d="M 335.5 88 Q 337.8 87.3 337 89.5 L 338 91.5 L 334 93 Q 333 89.2 335.5 88 Z " /><path fill="rgb(212,89,64)" stroke="rgb(212,89,64)" stroke-width="1" opacity="1" d="M 33.5 26 Q 42.5 27 46 33.5 Q 49.9 37.6 49 46.5 Q 47.2 53.7 41.5 57 L 35.5 59 L 35.5 58 Q 43.5 57 46 50.5 L 48 42.5 Q 46.5 34 40.5 30 Q 38.2 27.3 32.5 28 Q 25.6 29.6 23 35.5 L 20 43.5 L 19 55.5 L 22 64.5 L 25.5 68 L 35 69.5 L 27.5 70 L 21 65.5 L 18 56.5 L 18 47.5 L 22 34.5 L 28.5 28 L 33.5 26 Z " /><path fill="rgb(212,89,64)" stroke="rgb(212,89,64)" stroke-width="1" opacity="1" d="M 153.5 34 Q 160.1 33.4 162 37.5 Q 164.7 41.3 163 49.5 L 159 58.5 L 155.5 62 L 153 63.5 L 152 67.5 L 157.5 63 L 166.5 60 L 172 62.5 L 175 68 Q 179.7 68.8 181 64.5 L 183 60 Q 187 58.6 185 65.5 L 187.5 69 Q 194.8 70.3 196 65.5 L 197.5 62 L 200.5 67 L 202.5 67 L 211.5 60 L 214 61 Q 213.1 54.2 216 51 L 219.5 49 L 222.5 49 Q 225.8 50.8 224 57.5 L 219 67 L 222.5 67 L 227.5 63 L 231 63 Q 230.3 66.8 233.5 68 Q 239 69 240 65.5 L 240 63.5 L 241.5 60 Q 245.3 58.8 244 62.5 L 241 67.5 L 242.5 69 L 250 69.5 Q 249 72 244.5 71 Q 241.3 67.2 232.5 69 L 230 66.5 Q 230.8 63.9 227.5 65 Q 225.5 69 219.5 69 L 216.5 68 Q 213.8 70.8 207.5 70 Q 205.5 67 199.5 68 L 197.5 66 Q 195.4 70.5 189.5 71 L 185 67.5 L 183.5 63 L 178.5 69 Q 174.3 69.8 173.5 67 L 169.5 71 L 166.5 71 L 164 70 L 163 63 Q 155 64.6 151 71.5 Q 152.4 80.4 150 85.5 L 151.5 87 L 161.5 87 L 162.5 86 L 208.5 84 L 209.5 83 L 239.5 83 Q 241 80.5 246.5 82 L 246.5 83 L 231.5 84 L 216.5 87 L 192.5 89 L 191.5 90 L 171.5 91 L 170.5 92 L 157.5 92 L 156.5 93 L 113.5 93 L 106.5 91 L 80.5 91 L 79.5 92 L 65.5 92 L 63 93 L 63.5 91 L 73.5 91 L 74.5 90 L 109.5 89 L 110.5 88 L 138.5 88 L 143 85.5 L 144 78.5 L 149 71.5 L 150 67 L 142.5 67 L 141 65.5 Q 137.2 60.8 139 50.5 Q 141.1 41.6 147.5 37 L 153.5 34 Z M 155 35 L 149 38 Q 140 43 140 57 L 148 62 Q 153 63 156 60 Q 161 56 162 48 L 161 39 Q 159 35 155 35 Z M 221 50 L 219 51 L 215 57 Q 214 62 216 64 Q 215 66 218 65 Q 223 61 223 52 L 221 50 Z M 142 60 Q 140 64 144 66 L 149 65 Q 151 66 150 63 Q 144 64 142 60 Z M 166 62 L 165 68 L 169 69 Q 172 68 171 64 Q 170 61 166 62 Z M 209 63 Q 205 64 206 68 L 209 69 L 214 68 L 215 65 Q 214 62 209 63 Z M 149 74 Q 144 79 144 87 Q 148 88 149 86 L 149 74 Z M 201 85 L 200 86 L 151 88 L 148 92 L 199 88 L 200 87 L 208 87 L 214 86 L 201 85 Z M 146 88 L 144 91 Q 146 94 147 91 Q 148 87 146 88 Z M 117 89 L 110 91 L 116 92 L 143 92 L 143 89 L 117 89 Z " /><path fill="rgb(212,89,64)" stroke="rgb(212,89,64)" stroke-width="1" opacity="1" d="M 27.5 48 L 28 56.5 L 29.5 58 L 34 59.5 L 31.5 60 L 27 56.5 L 26 49.5 L 27.5 48 Z " /><path fill="rgb(212,89,64)" stroke="rgb(212,89,64)" stroke-width="1" opacity="1" d="M 62.5 52 L 64 56.5 L 62 64.5 L 64.5 66 L 72 59.5 L 74.5 56 L 75 61 L 77 61 Q 75.9 58.3 78.5 59 L 82 58 L 83 62 L 87.5 60 Q 91.1 62.1 91 67 L 94 65.5 L 94 62.5 L 97 57 L 101 58.5 L 96 69 Q 99.7 70.5 99 67.5 L 103 60 Q 106.3 58.7 105 63.5 L 107.5 65 L 111.5 60 L 114 61.5 L 117 68 L 124 70.5 L 119.5 71 Q 113.8 68.1 113 62 Q 110.3 60.9 111 63.5 Q 109.7 67.7 105 67 L 103.5 63 L 98.5 70 L 91.5 69 L 90 67.5 L 87.5 61 L 81.5 68 L 80.5 59 L 77 61.5 L 74.5 66 L 73 65.5 Q 75.3 64.3 74 59.5 L 72 60.5 L 67.5 66 L 62 67 L 60.5 64 L 57.5 66 L 48.5 67 L 47 64 L 44.5 64 L 36.5 69 L 36.5 68 L 39.5 67 L 47 59.5 Q 46.5 54.5 50.5 54 Q 55.5 53.5 56 57.5 L 56 64.5 L 57.5 65 L 60 62.5 L 62.5 52 Z M 51 56 L 48 59 L 48 65 L 53 65 Q 56 64 55 59 Q 55 56 51 56 Z M 97 59 L 95 65 L 96 66 L 99 62 Q 100 58 97 59 Z " /><path fill="rgb(212,89,64)" stroke="rgb(212,89,64)" stroke-width="1" opacity="1" d="M 228 56 Q 233.2 54.3 232 58 Q 226.8 59.7 228 56 Z " /><path fill="rgb(212,89,64)" stroke="rgb(212,89,64)" stroke-width="1" opacity="1" d="M 262 62 L 283 65.5 Q 275.5 76 278 96.5 L 280 107 L 277 105.5 Q 269.4 97.6 265 86.5 L 262 74.5 L 262 62 Z " /><path fill="rgb(212,89,64)" stroke="rgb(212,89,64)" stroke-width="1" opacity="1" d="M 137.5 97 L 140 97.5 L 137.5 98 L 137.5 97 Z " /><path fill="rgb(212,89,64)" stroke="rgb(212,89,64)" stroke-width="1" opacity="1" d="M 155.5 97 L 156 104.5 L 153.5 106 Q 151.3 105.3 152 101.5 L 153 101.5 Q 151.7 106.3 155 105 L 155.5 97 Z " /><path fill="rgb(212,89,64)" stroke="rgb(212,89,64)" stroke-width="1" opacity="1" d="M 184.5 97 L 186 97.5 L 184 98 L 183.5 100 L 183 98.5 L 184.5 97 Z " /><path fill="rgb(212,89,64)" stroke="rgb(212,89,64)" stroke-width="1" opacity="1" d="M 218.5 99 L 219 103.5 L 218 103.5 L 218.5 99 Z " /><path fill="rgb(212,89,64)" stroke="rgb(212,89,64)" stroke-width="1" opacity="1" d="M 141.5 100 L 143 105.5 L 141 104.5 L 141.5 100 Z " /><path fill="rgb(212,89,64)" stroke="rgb(212,89,64)" stroke-width="1" opacity="1" d="M 144.5 100 L 145 104.5 L 144 104.5 L 144.5 100 Z " /><path fill="rgb(212,89,64)" stroke="rgb(212,89,64)" stroke-width="1" opacity="1" d="M 193.5 100 L 194 105.5 L 193 105.5 L 193.5 100 Z " /><path fill="rgb(212,89,64)" stroke="rgb(212,89,64)" stroke-width="1" opacity="1" d="M 213.5 100 L 214 105.5 L 213 105.5 L 213.5 100 Z " /><path fill="rgb(212,89,64)" stroke="rgb(212,89,64)" stroke-width="1" opacity="1" d="M 241.5 100 L 242 105.5 L 241 105.5 L 241.5 100 Z " /><path fill="rgb(212,89,64)" stroke="rgb(212,89,64)" stroke-width="1" opacity="1" d="M 178.5 101 L 179 105.5 L 178 105.5 L 178.5 101 Z " /><path fill="rgb(212,89,64)" stroke="rgb(212,89,64)" stroke-width="1" opacity="1" d="M 227.5 101 L 228 104.5 L 225.5 106 L 225.5 105 L 227 105 L 227.5 101 Z " /><path fill="rgb(212,89,64)" stroke="rgb(212,89,64)" stroke-width="1" opacity="1" d="M 235.5 101 L 237 105.5 L 235 104.5 L 235.5 101 Z " /><path fill="rgb(212,89,64)" stroke="rgb(212,89,64)" stroke-width="1" opacity="1" d="M 205.5 102 L 208 102.5 L 205.5 103 L 205.5 102 Z " /><path fill="rgb(212,89,64)" stroke="rgb(212,89,64)" stroke-width="1" opacity="1" d="M 244.5 102 L 247 102.5 L 244.5 103 L 244.5 102 Z " /><path fill="rgb(212,89,64)" stroke="rgb(212,89,64)" stroke-width="1" opacity="1" d="M 183.5 103 L 184 105 L 186 105.5 L 184.5 106 L 183.5 103 Z " /><path fill="rgb(212,89,64)" stroke="rgb(212,89,64)" stroke-width="1" opacity="1" d="M 188.5 103 L 190 105.5 L 188 104.5 L 188.5 103 Z " /><path fill="rgb(212,89,64)" stroke="rgb(212,89,64)" stroke-width="1" opacity="1" d="M 160.5 104 L 159.5 106 L 158 105.5 L 160.5 104 Z " /><path fill="rgb(212,89,64)" stroke="rgb(212,89,64)" stroke-width="1" opacity="1" d="M 172.5 104 L 171.5 106 L 170 105.5 L 172.5 104 Z " /><path fill="rgb(212,89,64)" stroke="rgb(212,89,64)" stroke-width="1" opacity="1" d="M 205.5 104 L 208 105.5 L 206.5 106 L 205.5 104 Z " /><path fill="rgb(236,175,112)" stroke="rgb(236,175,112)" stroke-width="1" opacity="1" d="M 312.5 13 Q 341.2 13.3 354 29.5 L 352.5 29 Q 342 25 328.5 24 L 320.5 27 L 284.5 27 L 279.5 28 L 280.5 26 Q 286.5 27.5 288 24.5 L 285 22.5 L 297.5 16 L 312.5 13 Z " /><path fill="rgb(236,175,112)" stroke="rgb(236,175,112)" stroke-width="1" opacity="1" d="M 26.5 29 L 23.5 33 L 26.5 29 Z " /><path fill="rgb(236,175,112)" stroke="rgb(236,175,112)" stroke-width="1" opacity="1" d="M 42.5 29 L 45.5 33 L 42.5 29 Z " /><path fill="rgb(236,175,112)" stroke="rgb(236,175,112)" stroke-width="1" opacity="1" d="M 159.5 35 L 160.5 39 Q 156 37 159.5 35 Z " /><path fill="rgb(236,175,112)" stroke="rgb(236,175,112)" stroke-width="1" opacity="1" d="M 20.5 38 L 22 40.5 L 21 40.5 L 20.5 38 Z " /><path fill="rgb(236,175,112)" stroke="rgb(236,175,112)" stroke-width="1" opacity="1" d="M 148.5 38 L 147.5 40 L 148.5 38 Z " /><path fill="rgb(236,175,112)" stroke="rgb(236,175,112)" stroke-width="1" opacity="1" d="M 161.5 40 L 162 42.5 L 161 42.5 L 161.5 40 Z " /><path fill="rgb(236,175,112)" stroke="rgb(236,175,112)" stroke-width="1" opacity="1" d="M 145.5 41 L 144.5 43 L 145.5 41 Z " /><path fill="rgb(236,175,112)" stroke="rgb(236,175,112)" stroke-width="1" opacity="1" d="M 47.5 42 L 48 44.5 L 47 44.5 L 47.5 42 Z " /><path fill="rgb(236,175,112)" stroke="rgb(236,175,112)" stroke-width="1" opacity="1" d="M 163.5 42 L 164 46.5 L 163 46.5 L 163.5 42 Z " /><path fill="rgb(236,175,112)" stroke="rgb(236,175,112)" stroke-width="1" opacity="1" d="M 18.5 44 L 19 46.5 L 18 46.5 L 18.5 44 Z " /><path fill="rgb(236,175,112)" stroke="rgb(236,175,112)" stroke-width="1" opacity="1" d="M 141.5 44 L 142.5 46 L 141.5 44 Z " /><path fill="rgb(236,175,112)" stroke="rgb(236,175,112)" stroke-width="1" opacity="1" d="M 161.5 45 L 162 47.5 L 161 47.5 L 161.5 45 Z " /><path fill="rgb(236,175,112)" stroke="rgb(236,175,112)" stroke-width="1" opacity="1" d="M 27.5 47 L 26.5 49 L 27.5 47 Z " /><path fill="rgb(236,175,112)" stroke="rgb(236,175,112)" stroke-width="1" opacity="1" d="M 19.5 49 L 20 55.5 L 19 55.5 L 19.5 49 Z " /><path fill="rgb(236,175,112)" stroke="rgb(236,175,112)" stroke-width="1" opacity="1" d="M 218.5 49 L 219 51.5 L 217.5 53 L 217 50.5 L 218.5 49 Z " /><path fill="rgb(236,175,112)" stroke="rgb(236,175,112)" stroke-width="1" opacity="1" d="M 160.5 50 L 162 53.5 L 161 53.5 L 160.5 50 Z " /><path fill="rgb(236,175,112)" stroke="rgb(236,175,112)" stroke-width="1" opacity="1" d="M 220.5 50 L 223 51.5 L 221.5 51 L 220.5 50 Z " /><path fill="rgb(236,175,112)" stroke="rgb(236,175,112)" stroke-width="1" opacity="1" d="M 324.5 50 Q 333.2 48.3 336 52.5 L 338 57.5 L 336.5 59 L 329.5 60 L 320 65 L 319 58.5 Q 320.3 52.8 324.5 50 Z " /><path fill="rgb(236,175,112)" stroke="rgb(236,175,112)" stroke-width="1" opacity="1" d="M 366.5 50 L 368 51.5 L 370 61.5 L 370 73.5 L 368.5 77 L 358.5 66 L 349 59.5 L 347 51 L 362.5 52 L 366.5 50 Z " /><path fill="rgb(236,175,112)" stroke="rgb(236,175,112)" stroke-width="1" opacity="1" d="M 224.5 51 L 225 55.5 L 224 55.5 L 224.5 51 Z " /><path fill="rgb(236,175,112)" stroke="rgb(236,175,112)" stroke-width="1" opacity="1" d="M 295.5 51 L 299 53.5 L 298 59 L 286 62 L 287 69 Q 297 67.3 301 72.5 Q 302 78 298.5 79 Q 291.5 82.6 280 81 L 281 90 Q 300.7 92 310 82.5 L 313.5 73 L 321 87.5 L 321 95 L 324.5 94 L 341 116 Q 329.7 122.5 310.5 122 L 294.5 118 L 279 107.5 L 280 103.5 Q 276 94 278 78.5 Q 281.2 62.2 291.5 53 L 295.5 51 Z M 312 86 L 312 88 L 316 89 L 313 90 L 311 94 L 316 96 L 318 95 Q 320 95 319 89 Q 318 85 312 86 Z " /><path fill="rgb(236,175,112)" stroke="rgb(236,175,112)" stroke-width="1" opacity="1" d="M 45.5 53 L 43.5 56 L 45.5 53 Z " /><path fill="rgb(236,175,112)" stroke="rgb(236,175,112)" stroke-width="1" opacity="1" d="M 138.5 53 L 139 58.5 L 138 58.5 L 138.5 53 Z " /><path fill="rgb(236,175,112)" stroke="rgb(236,175,112)" stroke-width="1" opacity="1" d="M 53.5 54 L 55.5 57 L 53.5 54 Z " /><path fill="rgb(236,175,112)" stroke="rgb(236,175,112)" stroke-width="1" opacity="1" d="M 74.5 55 L 72.5 58 L 74.5 55 Z " /><path fill="rgb(236,175,112)" stroke="rgb(236,175,112)" stroke-width="1" opacity="1" d="M 229.5 55 L 232 55.5 L 229.5 56 L 229.5 55 Z " /><path fill="rgb(236,175,112)" stroke="rgb(236,175,112)" stroke-width="1" opacity="1" d="M 28.5 56 Q 31.5 57.5 28.5 59 Q 25.5 57.5 28.5 56 Z " /><path fill="rgb(236,175,112)" stroke="rgb(236,175,112)" stroke-width="1" opacity="1" d="M 39.5 56 L 40.5 58 L 39.5 56 Z " /><path fill="rgb(236,175,112)" stroke="rgb(236,175,112)" stroke-width="1" opacity="1" d="M 98.5 56 L 101 57.5 L 99.5 57 L 98.5 56 Z " /><path fill="rgb(236,175,112)" stroke="rgb(236,175,112)" stroke-width="1" opacity="1" d="M 37.5 57 L 38.5 59 L 37.5 57 Z " /><path fill="rgb(236,175,112)" stroke="rgb(236,175,112)" stroke-width="1" opacity="1" d="M 157.5 57 L 155.5 60 L 157.5 57 Z " /><path fill="rgb(236,175,112)" stroke="rgb(236,175,112)" stroke-width="1" opacity="1" d="M 31.5 58 Q 35.3 57.3 36 59.5 L 34.5 60 L 31.5 59 L 30 59.5 L 31.5 58 Z " /><path fill="rgb(236,175,112)" stroke="rgb(236,175,112)" stroke-width="1" opacity="1" d="M 75.5 58 L 77.5 61 L 79 60.5 Q 77.8 63.3 76.5 61 Q 73.4 61.7 75.5 58 Z " /><path fill="rgb(236,175,112)" stroke="rgb(236,175,112)" stroke-width="1" opacity="1" d="M 96.5 58 L 99 59 L 98.5 62 L 96.5 58 Z " /><path fill="rgb(236,175,112)" stroke="rgb(236,175,112)" stroke-width="1" opacity="1" d="M 229.5 58 L 232 58.5 L 229.5 59 L 229.5 58 Z " /><path fill="rgb(236,175,112)" stroke="rgb(236,175,112)" stroke-width="1" opacity="1" d="M 20.5 59 L 21 60.5 L 19.5 63 L 19 61.5 L 20.5 59 Z " /><path fill="rgb(236,175,112)" stroke="rgb(236,175,112)" stroke-width="1" opacity="1" d="M 56.5 59 Q 55.9 64 59 65.5 L 57.5 65 L 56 64.5 L 56.5 59 Z " /><path fill="rgb(236,175,112)" stroke="rgb(236,175,112)" stroke-width="1" opacity="1" d="M 71.5 59 L 74 59.5 L 72.5 61 L 70 60.5 L 71.5 59 Z " /><path fill="rgb(236,175,112)" stroke="rgb(236,175,112)" stroke-width="1" opacity="1" d="M 112.5 59 L 113.5 61 L 112.5 59 Z " /><path fill="rgb(236,175,112)" stroke="rgb(236,175,112)" stroke-width="1" opacity="1" d="M 213.5 59 L 214 61 L 212 60.5 L 213.5 59 Z " /><path fill="rgb(236,175,112)" stroke="rgb(236,175,112)" stroke-width="1" opacity="1" d="M 308.5 59 L 310 66.5 L 307.5 65 L 304 63.5 L 308.5 59 Z " /><path fill="rgb(236,175,112)" stroke="rgb(236,175,112)" stroke-width="1" opacity="1" d="M 85.5 60 L 84.5 62 L 85.5 60 Z " /><path fill="rgb(236,175,112)" stroke="rgb(236,175,112)" stroke-width="1" opacity="1" d="M 88.5 60 Q 91.5 61.5 88.5 63 Q 85.5 61.5 88.5 60 Z " /><path fill="rgb(236,175,112)" stroke="rgb(236,175,112)" stroke-width="1" opacity="1" d="M 144.5 60 L 143.5 62 L 144.5 60 Z " /><path fill="rgb(236,175,112)" stroke="rgb(236,175,112)" stroke-width="1" opacity="1" d="M 163.5 60 L 166 60.5 L 163.5 61 L 163.5 60 Z " /><path fill="rgb(236,175,112)" stroke="rgb(236,175,112)" stroke-width="1" opacity="1" d="M 167.5 60 L 170 60.5 L 167.5 61 L 167.5 60 Z " /><path fill="rgb(236,175,112)" stroke="rgb(236,175,112)" stroke-width="1" opacity="1" d="M 209.5 60 L 208.5 62 L 209.5 60 Z " /><path fill="rgb(236,175,112)" stroke="rgb(236,175,112)" stroke-width="1" opacity="1" d="M 147.5 61 L 152 61.5 L 147.5 62 L 147.5 61 Z " /><path fill="rgb(236,175,112)" stroke="rgb(236,175,112)" stroke-width="1" opacity="1" d="M 185.5 61 L 186 65.5 L 184 66.5 L 185.5 61 Z " /><path fill="rgb(236,175,112)" stroke="rgb(236,175,112)" stroke-width="1" opacity="1" d="M 197.5 61 L 198.5 63 L 196 62.5 L 197.5 61 Z " /><path fill="rgb(236,175,112)" stroke="rgb(236,175,112)" stroke-width="1" opacity="1" d="M 220.5 61 L 219.5 63 L 220.5 61 Z " /><path fill="rgb(236,175,112)" stroke="rgb(236,175,112)" stroke-width="1" opacity="1" d="M 54.5 62 L 52.5 65 L 54.5 62 Z " /><path fill="rgb(236,175,112)" stroke="rgb(236,175,112)" stroke-width="1" opacity="1" d="M 73.5 62 L 74 64.5 L 73 64.5 L 73.5 62 Z " /><path fill="rgb(236,175,112)" stroke="rgb(236,175,112)" stroke-width="1" opacity="1" d="M 154.5 62 L 153.5 64 L 154.5 62 Z " /><path fill="rgb(236,175,112)" stroke="rgb(236,175,112)" stroke-width="1" opacity="1" d="M 62.5 63 L 63 64.5 L 61 65.5 L 62.5 63 Z " /><path fill="rgb(236,175,112)" stroke="rgb(236,175,112)" stroke-width="1" opacity="1" d="M 172.5 63 L 174.5 66 L 172.5 63 Z " /><path fill="rgb(236,175,112)" stroke="rgb(236,175,112)" stroke-width="1" opacity="1" d="M 44.5 64 L 43.5 66 L 44.5 64 Z " /><path fill="rgb(236,175,112)" stroke="rgb(236,175,112)" stroke-width="1" opacity="1" d="M 84.5 64 L 83.5 66 L 84.5 64 Z " /><path fill="rgb(236,175,112)" stroke="rgb(236,175,112)" stroke-width="1" opacity="1" d="M 142.5 64 L 143.5 66 L 142.5 64 Z " /><path fill="rgb(236,175,112)" stroke="rgb(236,175,112)" stroke-width="1" opacity="1" d="M 155.5 64 L 152.5 68 L 152.5 65 Q 154 67.5 155.5 64 Z " /><path fill="rgb(236,175,112)" stroke="rgb(236,175,112)" stroke-width="1" opacity="1" d="M 180.5 64 L 177.5 68 L 180.5 64 Z " /><path fill="rgb(236,175,112)" stroke="rgb(236,175,112)" stroke-width="1" opacity="1" d="M 220.5 64 L 219.5 66 L 220.5 64 Z " /><path fill="rgb(236,175,112)" stroke="rgb(236,175,112)" stroke-width="1" opacity="1" d="M 225.5 64 L 224.5 66 L 225.5 64 Z " /><path fill="rgb(236,175,112)" stroke="rgb(236,175,112)" stroke-width="1" opacity="1" d="M 40.5 65 L 40.5 68 Q 37.5 66.5 40.5 65 Z " /><path fill="rgb(236,175,112)" stroke="rgb(236,175,112)" stroke-width="1" opacity="1" d="M 109.5 65 L 108.5 67 L 109.5 65 Z " /><path fill="rgb(236,175,112)" stroke="rgb(236,175,112)" stroke-width="1" opacity="1" d="M 199.5 65 L 200.5 67 L 199.5 65 Z " /><path fill="rgb(236,175,112)" stroke="rgb(236,175,112)" stroke-width="1" opacity="1" d="M 203.5 65 L 202.5 67 L 203.5 65 Z " /><path fill="rgb(236,175,112)" stroke="rgb(236,175,112)" stroke-width="1" opacity="1" d="M 227.5 65 L 226.5 67 L 227.5 65 Z " /><path fill="rgb(236,175,112)" stroke="rgb(236,175,112)" stroke-width="1" opacity="1" d="M 231.5 65 L 233.5 68 L 231.5 65 Z " /><path fill="rgb(236,175,112)" stroke="rgb(236,175,112)" stroke-width="1" opacity="1" d="M 261.5 65 L 262 69.5 L 261 69.5 L 261.5 65 Z " /><path fill="rgb(236,175,112)" stroke="rgb(236,175,112)" stroke-width="1" opacity="1" d="M 97.5 66 L 96.5 68 L 97.5 66 Z " /><path fill="rgb(236,175,112)" stroke="rgb(236,175,112)" stroke-width="1" opacity="1" d="M 197.5 66 L 194.5 70 L 197.5 66 Z " /><path fill="rgb(236,175,112)" stroke="rgb(236,175,112)" stroke-width="1" opacity="1" d="M 25.5 67 L 24.5 69 L 25.5 67 Z " /><path fill="rgb(236,175,112)" stroke="rgb(236,175,112)" stroke-width="1" opacity="1" d="M 37.5 67 L 38.5 69 L 37.5 67 Z " /><path fill="rgb(236,175,112)" stroke="rgb(236,175,112)" stroke-width="1" opacity="1" d="M 115.5 67 L 118 67.5 L 117.5 70 L 115.5 67 Z " /><path fill="rgb(236,175,112)" stroke="rgb(236,175,112)" stroke-width="1" opacity="1" d="M 144.5 67 L 148 67.5 L 144.5 68 L 144.5 67 Z " /><path fill="rgb(236,175,112)" stroke="rgb(236,175,112)" stroke-width="1" opacity="1" d="M 173.5 67 L 178 69.5 L 175.5 70 L 173.5 68 L 170 70.5 L 173.5 67 Z " /><path fill="rgb(236,175,112)" stroke="rgb(236,175,112)" stroke-width="1" opacity="1" d="M 186.5 67 Q 189.5 68.5 186.5 70 Q 183.5 68.5 186.5 67 Z " /><path fill="rgb(236,175,112)" stroke="rgb(236,175,112)" stroke-width="1" opacity="1" d="M 241.5 67 Q 244.5 68.5 241.5 70 L 241.5 67 Z " /><path fill="rgb(236,175,112)" stroke="rgb(236,175,112)" stroke-width="1" opacity="1" d="M 27.5 68 L 26.5 70 L 27.5 68 Z " /><path fill="rgb(236,175,112)" stroke="rgb(236,175,112)" stroke-width="1" opacity="1" d="M 34.5 68 L 37 69.5 L 35.5 70 L 34.5 68 Z " /><path fill="rgb(236,175,112)" stroke="rgb(236,175,112)" stroke-width="1" opacity="1" d="M 98.5 68 L 101 68.5 Q 100.5 71.5 96.5 71 L 96.5 70 L 99 69.5 L 98.5 68 Z " /><path fill="rgb(236,175,112)" stroke="rgb(236,175,112)" stroke-width="1" opacity="1" d="M 166.5 68 L 169 68.5 L 166.5 69 L 166.5 68 Z " /><path fill="rgb(236,175,112)" stroke="rgb(236,175,112)" stroke-width="1" opacity="1" d="M 200.5 68 L 203 68.5 L 200.5 69 L 200.5 68 Z " /><path fill="rgb(236,175,112)" stroke="rgb(236,175,112)" stroke-width="1" opacity="1" d="M 208.5 68 L 212 68.5 L 208.5 69 L 208.5 68 Z " /><path fill="rgb(236,175,112)" stroke="rgb(236,175,112)" stroke-width="1" opacity="1" d="M 234.5 69 L 238 69.5 L 234.5 70 L 234.5 69 Z " /><path fill="rgb(236,175,112)" stroke="rgb(236,175,112)" stroke-width="1" opacity="1" d="M 146.5 74 L 149 74.5 Q 146.9 77.8 146.5 74 Z " /><path fill="rgb(236,175,112)" stroke="rgb(236,175,112)" stroke-width="1" opacity="1" d="M 262.5 75 L 263 77.5 L 262 77.5 L 262.5 75 Z " /><path fill="rgb(236,175,112)" stroke="rgb(236,175,112)" stroke-width="1" opacity="1" d="M 219.5 82 L 225 82.5 L 219.5 83 L 219.5 82 Z " /><path fill="rgb(236,175,112)" stroke="rgb(236,175,112)" stroke-width="1" opacity="1" d="M 233.5 82 L 240 82.5 L 233.5 83 L 233.5 82 Z " /><path fill="rgb(236,175,112)" stroke="rgb(236,175,112)" stroke-width="1" opacity="1" d="M 148.5 83 L 149 85.5 L 148 85.5 L 148.5 83 Z " /><path fill="rgb(236,175,112)" stroke="rgb(236,175,112)" stroke-width="1" opacity="1" d="M 150.5 83 L 151 86 L 162 86.5 L 151.5 87 Q 149 86 150.5 83 Z " /><path fill="rgb(236,175,112)" stroke="rgb(236,175,112)" stroke-width="1" opacity="1" d="M 202.5 83 L 209 83.5 L 202.5 84 L 202.5 83 Z " /><path fill="rgb(236,175,112)" stroke="rgb(236,175,112)" stroke-width="1" opacity="1" d="M 242.5 83 L 247 83.5 L 242.5 84 L 242.5 83 Z " /><path fill="rgb(236,175,112)" stroke="rgb(236,175,112)" stroke-width="1" opacity="1" d="M 186.5 84 L 193 84.5 L 186.5 85 L 186.5 84 Z " /><path fill="rgb(236,175,112)" stroke="rgb(236,175,112)" stroke-width="1" opacity="1" d="M 231.5 84 L 235 84.5 L 231.5 85 L 231.5 84 Z " /><path fill="rgb(236,175,112)" stroke="rgb(236,175,112)" stroke-width="1" opacity="1" d="M 170.5 85 L 177 85.5 L 170.5 86 L 170.5 85 Z " /><path fill="rgb(236,175,112)" stroke="rgb(236,175,112)" stroke-width="1" opacity="1" d="M 200.5 85 L 214 85.5 L 204.5 87 L 200.5 86 L 200.5 85 Z " /><path fill="rgb(236,175,112)" stroke="rgb(236,175,112)" stroke-width="1" opacity="1" d="M 224.5 85 L 227 85.5 L 224.5 86 L 224.5 85 Z " /><path fill="rgb(236,175,112)" stroke="rgb(236,175,112)" stroke-width="1" opacity="1" d="M 183.5 86 L 191 86.5 L 183.5 87 L 183.5 86 Z " /><path fill="rgb(236,175,112)" stroke="rgb(236,175,112)" stroke-width="1" opacity="1" d="M 217.5 86 L 220 86.5 L 217.5 87 L 217.5 86 Z " /><path fill="rgb(236,175,112)" stroke="rgb(236,175,112)" stroke-width="1" opacity="1" d="M 126.5 87 L 139 87.5 L 126.5 88 L 126.5 87 Z " /><path fill="rgb(236,175,112)" stroke="rgb(236,175,112)" stroke-width="1" opacity="1" d="M 164.5 87 L 173 87.5 L 164.5 88 L 164.5 87 Z " /><path fill="rgb(236,175,112)" stroke="rgb(236,175,112)" stroke-width="1" opacity="1" d="M 195.5 87 L 199 87.5 L 195.5 88 L 195.5 87 Z " /><path fill="rgb(236,175,112)" stroke="rgb(236,175,112)" stroke-width="1" opacity="1" d="M 209.5 87 L 213 87.5 L 209.5 88 L 209.5 87 Z " /><path fill="rgb(236,175,112)" stroke="rgb(236,175,112)" stroke-width="1" opacity="1" d="M 104.5 88 L 110 88.5 L 104.5 89 L 104.5 88 Z " /><path fill="rgb(236,175,112)" stroke="rgb(236,175,112)" stroke-width="1" opacity="1" d="M 145.5 88 L 147 88.5 L 145 89 L 145.5 91 L 147 90.5 Q 145.5 93.5 144 90.5 L 145.5 88 Z " /><path fill="rgb(236,175,112)" stroke="rgb(236,175,112)" stroke-width="1" opacity="1" d="M 150.5 88 L 153 88.5 L 150.5 89 L 150.5 88 Z " /><path fill="rgb(236,175,112)" stroke="rgb(236,175,112)" stroke-width="1" opacity="1" d="M 186.5 88 L 189 88.5 L 186.5 89 L 186.5 88 Z " /><path fill="rgb(236,175,112)" stroke="rgb(236,175,112)" stroke-width="1" opacity="1" d="M 201.5 88 L 204 88.5 L 201.5 89 L 201.5 88 Z " /><path fill="rgb(236,175,112)" stroke="rgb(236,175,112)" stroke-width="1" opacity="1" d="M 85.5 89 L 91 89.5 L 85.5 90 L 85.5 89 Z " /><path fill="rgb(236,175,112)" stroke="rgb(236,175,112)" stroke-width="1" opacity="1" d="M 116.5 89 L 127 89.5 L 116.5 90 L 116.5 89 Z " /><path fill="rgb(236,175,112)" stroke="rgb(236,175,112)" stroke-width="1" opacity="1" d="M 176.5 89 L 179 89.5 L 176.5 90 L 176.5 89 Z " /><path fill="rgb(236,175,112)" stroke="rgb(236,175,112)" stroke-width="1" opacity="1" d="M 192.5 89 L 195 89.5 L 192.5 90 L 192.5 89 Z " /><path fill="rgb(236,175,112)" stroke="rgb(236,175,112)" stroke-width="1" opacity="1" d="M 69.5 90 L 74 90.5 L 69.5 91 L 69.5 90 Z " /><path fill="rgb(236,175,112)" stroke="rgb(236,175,112)" stroke-width="1" opacity="1" d="M 148.5 90 L 154 91.5 L 148 92 L 148.5 90 Z " /><path fill="rgb(236,175,112)" stroke="rgb(236,175,112)" stroke-width="1" opacity="1" d="M 164.5 90 L 168 90.5 L 164.5 91 L 164.5 90 Z " /><path fill="rgb(236,175,112)" stroke="rgb(236,175,112)" stroke-width="1" opacity="1" d="M 182.5 90 L 186 90.5 L 182.5 91 L 182.5 90 Z " /><path fill="rgb(236,175,112)" stroke="rgb(236,175,112)" stroke-width="1" opacity="1" d="M 80.5 91 L 84 91.5 L 80.5 92 L 80.5 91 Z " /><path fill="rgb(236,175,112)" stroke="rgb(236,175,112)" stroke-width="1" opacity="1" d="M 115.5 91 L 118 91.5 L 115.5 92 L 115.5 91 Z " /><path fill="rgb(236,175,112)" stroke="rgb(236,175,112)" stroke-width="1" opacity="1" d="M 171.5 91 L 175 91.5 L 171.5 92 L 171.5 91 Z " /><path fill="rgb(236,175,112)" stroke="rgb(236,175,112)" stroke-width="1" opacity="1" d="M 314 91 Q 317 89.8 316 93.5 L 314 92.5 L 314 91 Z " /><path fill="rgb(236,175,112)" stroke="rgb(236,175,112)" stroke-width="1" opacity="1" d="M 65.5 92 L 68 92.5 L 65.5 93 L 65.5 92 Z " /><path fill="rgb(236,175,112)" stroke="rgb(236,175,112)" stroke-width="1" opacity="1" d="M 157.5 92 L 162 92.5 L 157.5 93 L 157.5 92 Z " /><path fill="rgb(236,175,112)" stroke="rgb(236,175,112)" stroke-width="1" opacity="1" d="M 132.5 93 L 141 93.5 L 132.5 94 L 132.5 93 Z " /><path fill="rgb(236,175,112)" stroke="rgb(236,175,112)" stroke-width="1" opacity="1" d="M 171.5 97 Q 171.3 101.3 174 102.5 L 172 103.5 L 171.5 97 Z " /><path fill="rgb(236,175,112)" stroke="rgb(236,175,112)" stroke-width="1" opacity="1" d="M 219.5 97 L 220 99 L 218 98.5 L 219.5 97 Z " /><path fill="rgb(236,175,112)" stroke="rgb(236,175,112)" stroke-width="1" opacity="1" d="M 136 98 Q 139 96.8 138 100.5 L 138 102.5 Q 139.3 107.3 136 106 L 136 98 Z " /><path fill="rgb(236,175,112)" stroke="rgb(236,175,112)" stroke-width="1" opacity="1" d="M 159.5 99 L 161 101.5 L 160.5 104 L 159 103.5 Q 159.8 105.8 157.5 105 L 158 103.5 Q 157.3 101.3 159.5 102 L 159.5 101 L 158 100.5 L 159.5 99 Z " /><path fill="rgb(236,175,112)" stroke="rgb(236,175,112)" stroke-width="1" opacity="1" d="M 189.5 99 L 190 101 L 192 101 L 192 106 Q 189.3 107.1 190 104.5 L 191 102.5 L 189 102.5 L 189.5 101 L 188 100.5 L 189.5 99 Z " /><path fill="rgb(236,175,112)" stroke="rgb(236,175,112)" stroke-width="1" opacity="1" d="M 226.5 99 L 227.5 101 L 224.5 102 L 224 100 L 226.5 99 Z " /><path fill="rgb(236,175,112)" stroke="rgb(236,175,112)" stroke-width="1" opacity="1" d="M 238.5 99 L 237.5 101 L 235 100.5 L 238.5 99 Z " /><path fill="rgb(236,175,112)" stroke="rgb(236,175,112)" stroke-width="1" opacity="1" d="M 148.5 100 L 151 101 L 150.5 106 L 148.5 101 L 147.5 106 L 147 101.5 L 148.5 100 Z " /><path fill="rgb(236,175,112)" stroke="rgb(236,175,112)" stroke-width="1" opacity="1" d="M 152.5 100 L 155 100.5 L 152.5 101 L 152.5 100 Z " /><path fill="rgb(236,175,112)" stroke="rgb(236,175,112)" stroke-width="1" opacity="1" d="M 164.5 100 L 163 102.5 L 164 105.5 L 163 105.5 L 162 101 L 164.5 100 Z " /><path fill="rgb(236,175,112)" stroke="rgb(236,175,112)" stroke-width="1" opacity="1" d="M 176.5 100 L 179 100.5 L 176.5 101 L 176.5 100 Z " /><path fill="rgb(236,175,112)" stroke="rgb(236,175,112)" stroke-width="1" opacity="1" d="M 182 100 Q 185.3 98.9 184 103 Q 180.7 104.1 182 100 Z " /><path fill="rgb(236,175,112)" stroke="rgb(236,175,112)" stroke-width="1" opacity="1" d="M 196 100 L 199.5 101 L 201.5 100 L 200 102.5 L 199.5 106 L 198.5 101 L 198 106 L 196 106 L 196 100 Z " /><path fill="rgb(236,175,112)" stroke="rgb(236,175,112)" stroke-width="1" opacity="1" d="M 206.5 100 L 209 101.5 L 208.5 103 L 208 101 L 205 102.5 L 205.5 104 Q 202 102 206.5 100 Z " /><path fill="rgb(236,175,112)" stroke="rgb(236,175,112)" stroke-width="1" opacity="1" d="M 229.5 100 Q 232.9 99.1 231 104.5 L 232 104.5 Q 230.3 98.7 234 100 L 234 106 L 231.5 106 L 229.5 100 Z " /><path fill="rgb(236,175,112)" stroke="rgb(236,175,112)" stroke-width="1" opacity="1" d="M 245.5 100 Q 247.8 99.3 247 101.5 L 245.5 100 Z " /><path fill="rgb(236,175,112)" stroke="rgb(236,175,112)" stroke-width="1" opacity="1" d="M 167.5 101 L 168 105.5 L 167 105.5 L 167.5 101 Z " /><path fill="rgb(236,175,112)" stroke="rgb(236,175,112)" stroke-width="1" opacity="1" d="M 169.5 101 L 171 104.5 L 169 105 L 169.5 101 Z " /><path fill="rgb(236,175,112)" stroke="rgb(236,175,112)" stroke-width="1" opacity="1" d="M 222.5 101 L 223 104.5 L 222 104.5 L 222.5 101 Z " /><path fill="rgb(236,175,112)" stroke="rgb(236,175,112)" stroke-width="1" opacity="1" d="M 243.5 101 L 245 104.5 L 243 105 L 243.5 101 Z " /><path fill="rgb(236,175,112)" stroke="rgb(236,175,112)" stroke-width="1" opacity="1" d="M 273.5 101 L 276.5 105 L 273.5 101 Z " /><path fill="rgb(236,175,112)" stroke="rgb(236,175,112)" stroke-width="1" opacity="1" d="M 175.5 102 L 176 105.5 L 175 105.5 L 175.5 102 Z " /><path fill="rgb(236,175,112)" stroke="rgb(236,175,112)" stroke-width="1" opacity="1" d="M 202.5 102 L 203 105.5 L 202 105.5 L 202.5 102 Z " /><path fill="rgb(236,175,112)" stroke="rgb(236,175,112)" stroke-width="1" opacity="1" d="M 210.5 102 L 211 104.5 L 210 104.5 L 210.5 102 Z " /><path fill="rgb(236,175,112)" stroke="rgb(236,175,112)" stroke-width="1" opacity="1" d="M 143.5 104 L 144.5 106 Q 141.7 106.7 143.5 104 Z " /><path fill="rgb(236,175,112)" stroke="rgb(236,175,112)" stroke-width="1" opacity="1" d="M 218.5 104 Q 220.8 103.3 220 105.5 L 218.5 104 Z " /></svg>